<svg xmlns="http://www.w3.org/2000/svg" width="57" height="54">
    <path fill="#BE946A" fill-rule="evenodd" d="M54.433 47.238v3.96a2.808 2.808 0 0 1-2.811 2.798h-2.534a2.808 2.808 0 0 1-2.811-2.798v-3.957c-.04-.022-.079-.046-.119-.07a5.965 5.965 0 0 1-2.988.801H14.771a5.967 5.967 0 0 1-2.988-.801 2.848 2.848 0 0 1-.119.07v3.957a2.808 2.808 0 0 1-2.811 2.798H6.319a2.808 2.808 0 0 1-2.811-2.798v-3.96C1.939 46.314.976 44.66.976 42.853v-25.01c0-2.823 2.307-5.119 5.141-5.119h2.938c.222 0 .446.018.682.054V5.89c0-3.248 2.655-5.892 5.918-5.892h26.631c3.263 0 5.918 2.644 5.918 5.892v6.888a4.49 4.49 0 0 1 .682-.054h2.938c2.835 0 5.141 2.296 5.141 5.119v25.01c0 1.807-.962 3.461-2.532 4.385zm-48.411 3.96c0 .162.133.295.297.295h2.534a.297.297 0 0 0 .297-.295V47.97l-.095.002H6.117l-.095-.002v3.228zm5.66-27.259a.86.86 0 0 1-.046-.09l-.151-.331.197-.179v-5.496c0-.452-.124-.891-.368-1.307a2.609 2.609 0 0 0-.633-.728 2.584 2.584 0 0 0-.632-.383 2.619 2.619 0 0 0-.994-.198H6.117a2.624 2.624 0 0 0-2.627 2.616v25.01c0 .917.481 1.753 1.286 2.234.18.109.384.196.604.261.279.082.513.121.737.121h2.938c.224 0 .458-.039.737-.121.197-.057.385-.137.557-.236.239-.139.395-.256.527-.383a2.59 2.59 0 0 0 .4-.497c.265-.423.406-.899.406-1.379V23.939zm3.089 21.53H43.17c.398 0 .793-.074 1.178-.22a5.05 5.05 0 0 1-.603-2.396V38.22a5.84 5.84 0 0 1-.575.028H14.771a5.84 5.84 0 0 1-.575-.028v4.633a5.05 5.05 0 0 1-.603 2.396c.385.146.78.22 1.178.22zm25.128-9.724h3.271c.183 0 .371-.019.575-.059V23.151a2.962 2.962 0 0 0-.575-.059H14.771c-.182 0-.37.019-.575.059v12.535c.205.04.393.059.575.059h25.128zM45.69 5.89a3.4 3.4 0 0 0-3.404-3.389H15.655a3.4 3.4 0 0 0-3.404 3.389v7.96a5.12 5.12 0 0 1 1.945 3.993v2.773c.192-.018.384-.027.575-.027H43.17c.191 0 .383.009.575.027v-2.773a5.12 5.12 0 0 1 1.945-3.993V5.89zm3.101 45.308c0 .162.133.295.297.295h2.534a.297.297 0 0 0 .297-.295V47.97a2.948 2.948 0 0 1-.095.002h-2.938l-.095-.002v3.228zm5.66-33.355a2.624 2.624 0 0 0-2.627-2.616h-2.938a2.61 2.61 0 0 0-.993.198 2.57 2.57 0 0 0-.633.383 2.609 2.609 0 0 0-.633.728 2.557 2.557 0 0 0-.368 1.307v5.498l.193.179-.146.326c-.014.032-.03.063-.047.093v18.914c0 .48.14.956.406 1.378.119.19.254.358.4.498a2.737 2.737 0 0 0 1.084.619c.279.082.514.121.737.121h2.938c.224 0 .458-.039.737-.121a2.6 2.6 0 0 0 .605-.261 2.593 2.593 0 0 0 1.285-2.234v-25.01z"/>
</svg>
