<svg xmlns="http://www.w3.org/2000/svg" width="51" height="86">
    <path fill="#BE946A" fill-rule="evenodd" d="M43.218 85.986H8.655c-4.26 0-7.727-3.482-7.727-7.762V8.743c0-4.166 3.248-7.568 7.394-7.747L43.218.98c4.26 0 7.726 3.482 7.726 7.763v69.481c0 4.28-3.466 7.762-7.726 7.762zM48.59 8.743c0-2.976-2.41-5.397-5.372-5.397H8.655c-2.962 0-5.372 2.421-5.372 5.397v69.481c0 2.975 2.41 5.397 5.372 5.397h34.563c2.962 0 5.372-2.422 5.372-5.397V8.743zm-9.827 71.195H13.109c-3.488 0-6.326-2.852-6.326-6.357v-9.355c0-3.506 2.838-6.357 6.326-6.357h25.654c3.488 0 6.327 2.851 6.327 6.357v9.355c0 3.505-2.839 6.357-6.327 6.357zm3.973-15.712c0-2.202-1.783-3.992-3.973-3.992H13.109c-2.19 0-3.972 1.79-3.972 3.992v9.355c0 2.201 1.782 3.991 3.972 3.991h25.654c2.19 0 3.973-1.79 3.973-3.991v-9.355zm-3.973-9.708H13.109c-3.488 0-6.326-2.852-6.326-6.357v-9.356c0-3.505 2.838-6.357 6.326-6.357h25.654c3.488 0 6.327 2.852 6.327 6.357v9.356c0 3.505-2.839 6.357-6.327 6.357zm3.973-15.713c0-2.201-1.783-3.991-3.973-3.991H13.109c-2.19 0-3.972 1.79-3.972 3.991v9.356c0 2.201 1.782 3.991 3.972 3.991h25.654c2.19 0 3.973-1.79 3.973-3.991v-9.356zm-3.973-9.707H13.109c-3.488 0-6.326-2.852-6.326-6.357v-9.356c0-3.505 2.838-6.357 6.326-6.357h25.654c3.488 0 6.327 2.852 6.327 6.357v9.356c0 3.505-2.839 6.357-6.327 6.357zm0-19.704H13.109c-2.19 0-3.972 1.79-3.972 3.991v9.356c0 2.201 1.782 3.991 3.972 3.991h25.654c2.19 0 3.973-1.79 3.973-3.991v-9.356c0-2.201-1.783-3.991-3.973-3.991z"/>
</svg>
