<svg xmlns="http://www.w3.org/2000/svg" width="38" height="52">
    <path fill="#BE946A" fill-rule="evenodd" d="M37.478 4.958l-.026.097c-.281 1.056-.605 2.235-.95 3.494l-.058.212c-1.856 6.767-4.395 16.026-4.752 21.336-.283 4.2 2.084 14.243 2.589 15.973.398 1.364.671 2.796-.023 4.027-.456.805-1.248 1.363-2.356 1.658a4.01 4.01 0 0 1-1.028.142c-1.862 0-3.242-1.445-4.099-4.295l-.029-.1c-.699-2.33-2.826-9.422-3.6-12.44-.509-1.99-1.625-1.965-3.03-1.933l-.43.006c-2.443 0-4.267-.094-5.877-.178-1.275-.066-2.376-.123-3.549-.123-.325 0-.76.052-.989.298-.226.244-.268.667-.259.857.004.058.005.136-.002.202-.182 1.993-1.092 11.804-1.456 13.404-.3 1.321-.911 4.074-4.238 3.823-2.564-.184-3.361-2.751-3.26-4.326.313-4.984 1.795-15.489 2.271-18.548.705-4.516 4.387-4.301 5.595-4.227l.828.055c10.131.705 13.421-.029 14.398-.767 2.132-1.606 3.876-8.14 5.278-13.39.758-2.836 1.462-5.468 2.218-7.498C31.703-.118 34.007.071 34.945.284c1.065.24 1.841.75 2.304 1.516.719 1.186.395 2.531.229 3.158zM5.131 47.046c.28-1.229 1.039-9.057 1.401-13.024-.019-.296-.007-1.565.901-2.558.674-.737 1.624-1.111 2.827-1.111 1.234 0 2.367.059 3.678.126 1.58.082 3.37.175 5.74.175l.867-.013c.997 0 4.033 0 5.007 3.805.521 2.031 1.733 6.217 3.604 12.443.843 2.807 1.663 2.587 2.105 2.469.439-.117.718-.278.832-.479v-.001c.277-.49-.067-1.67-.196-2.114-.317-1.083-3.011-11.98-2.684-16.834.375-5.566 2.953-14.963 4.835-21.824.366-1.333.707-2.58 1.006-3.696.091-.344.268-1 .07-1.325-.098-.162-.356-.298-.726-.381-.657-.147-1.079-.052-1.426.879-.719 1.929-1.412 4.524-2.145 7.271-1.659 6.207-3.37 12.612-6.181 14.731-2.543 1.918-9.551 1.714-16.067 1.262l-.807-.054c-1.541-.094-2.658.009-2.99 2.132-.471 3.024-1.939 13.406-2.248 18.323 0 0-.02 1.626.959 1.695.948.061 1.232-.114 1.638-1.897z"/>
</svg>
