<svg xmlns="http://www.w3.org/2000/svg" width="86" height="54">
    <path fill="#BE946A" fill-rule="evenodd" d="M83.437 47.238v3.96a2.807 2.807 0 0 1-2.809 2.798h-2.533a2.807 2.807 0 0 1-2.809-2.798v-3.96a5.5 5.5 0 0 1-.291-.185 5.94 5.94 0 0 1-3.18.919H14.767a5.958 5.958 0 0 1-2.987-.801l-.119.07v3.957a2.807 2.807 0 0 1-2.81 2.798H6.318a2.807 2.807 0 0 1-2.809-2.798v-3.96C1.94 46.314.978 44.661.978 42.853v-25.01c0-2.823 2.305-5.119 5.139-5.119h2.936c.222 0 .446.018.682.054V5.89c0-3.248 2.654-5.892 5.915-5.892h55.281c3.262 0 5.916 2.644 5.916 5.892v6.952c.353-.079.7-.118 1.047-.118h2.935c2.833 0 5.139 2.296 5.139 5.119v25.01c0 1.808-.962 3.461-2.531 4.385zM44.548 20.589h27.267c.31 0 .625.025.94.077v-2.823c0-1.372.573-2.695 1.579-3.663V5.89a3.4 3.4 0 0 0-3.403-3.389H44.548v18.088zm-32.3-6.739a5.12 5.12 0 0 1 1.943 3.993v2.773c.192-.018.385-.027.576-.027h27.268V2.501H15.65a3.4 3.4 0 0 0-3.402 3.389v7.96zm60.507 29.003V38.17c-.315.052-.63.078-.94.078H14.767a5.86 5.86 0 0 1-.576-.028v4.633c0 .841-.206 1.659-.602 2.396.385.146.78.22 1.178.22h57.048c.516 0 1.023-.117 1.488-.339a5.056 5.056 0 0 1-.548-2.277zm-58.564-7.167c.205.04.393.059.576.059h57.048c.313 0 .628-.046.94-.137v-12.38a3.398 3.398 0 0 0-.94-.136H14.767a2.98 2.98 0 0 0-.576.059v12.535zm-3.538 9.83l-.259-.429c.192-.115.348-.231.48-.358.145-.14.28-.309.399-.499a2.58 2.58 0 0 0 .405-1.377V23.939a1.571 1.571 0 0 1-.046-.093l-.148-.329.194-.177v-5.497a2.56 2.56 0 0 0-.367-1.308 2.633 2.633 0 0 0-.633-.728 2.591 2.591 0 0 0-.632-.382 2.61 2.61 0 0 0-.993-.198H6.117a2.624 2.624 0 0 0-2.626 2.616v25.01c0 .917.48 1.753 1.284 2.234.182.109.386.197.605.261.279.082.513.121.737.121h2.936c.224 0 .458-.039.737-.121.197-.058.385-.138.558-.236l.305.404zM9.148 47.97a2.948 2.948 0 0 1-.095.002H6.117l-.096-.002v3.228c0 .162.133.295.297.295h2.533a.297.297 0 0 0 .297-.295V47.97zm71.776 0a2.948 2.948 0 0 1-.095.002h-2.935l-.095-.002v3.228c0 .162.133.295.296.295h2.533a.296.296 0 0 0 .296-.295V47.97zm-3.03-2.501h2.935c.224 0 .458-.039.738-.121.219-.064.422-.152.604-.261a2.59 2.59 0 0 0 1.284-2.234v-25.01a2.624 2.624 0 0 0-2.626-2.616h-2.935c-.447 0-.885.121-1.299.359a2.62 2.62 0 0 0-.633.503 2.6 2.6 0 0 0-.694 1.754v25.01c0 .388.096.777.285 1.155.095.191.217.373.363.542.16.185.316.329.476.441l.095.057c.248.148.451.236.67.3.279.082.513.121.737.121z"/>
</svg>
