<svg xmlns="http://www.w3.org/2000/svg" width="61" height="49">
    <path fill="#BE946A" fill-rule="evenodd" d="M56.313 9.981H43.072l10.681 35.096a2.88 2.88 0 0 1-.216 2.205 2.876 2.876 0 0 1-1.71 1.409l-.278.085a2.9 2.9 0 0 1-3.609-1.927l-2.57-8.446H15.621l-2.57 8.446a2.9 2.9 0 0 1-3.611 1.926l-.276-.084a2.9 2.9 0 0 1-1.926-3.613l10.68-35.097H4.678A4.693 4.693 0 0 1-.007 5.292v-.607A4.692 4.692 0 0 1 4.678-.004h51.635a4.691 4.691 0 0 1 4.684 4.689v.607a4.692 4.692 0 0 1-4.684 4.689zm-16.984 0l10.998 36.141a.39.39 0 0 0 .194.233.378.378 0 0 0 .3.032l.281-.085a.399.399 0 0 0 .264-.497L40.464 9.981h-1.135zM16.381 35.905h28.23l-.438-1.437H16.818l-.437 1.437zm27.032-3.934l-6.692-21.99H24.269l-6.692 21.99h25.836zM20.526 9.981L9.625 45.805a.399.399 0 0 0 .265.497l.276.084a.39.39 0 0 0 .304-.031.388.388 0 0 0 .194-.234l10.998-36.14h-1.136zm35.787-7.488H4.678c-1.207 0-2.19.983-2.19 2.192v.607c0 1.208.983 2.192 2.19 2.192h51.635c1.207 0 2.19-.984 2.19-2.192v-.607a2.194 2.194 0 0 0-2.19-2.192z"/>
</svg>
