<svg xmlns="http://www.w3.org/2000/svg" width="76" height="60">
    <path fill="#BE946A" fill-rule="evenodd" d="M69.569 54.402h-3.727v2.774a2.806 2.806 0 0 1-2.804 2.803h-2.101a2.806 2.806 0 0 1-2.804-2.803v-2.774H18.184v2.774a2.806 2.806 0 0 1-2.804 2.803h-2.101a2.806 2.806 0 0 1-2.804-2.803v-2.774H6.411a6.425 6.425 0 0 1-6.417-6.417V35.277a6.425 6.425 0 0 1 6.417-6.417h.706a6.53 6.53 0 0 1-.17-1.476V6.616a6.637 6.637 0 0 1 6.631-6.63h48.824a6.638 6.638 0 0 1 6.632 6.63v20.768c0 .495-.057.989-.17 1.476h.705a6.425 6.425 0 0 1 6.418 6.417v12.708a6.425 6.425 0 0 1-6.418 6.417zm-8.928 2.774c0 .163.133.296.296.296h2.101a.297.297 0 0 0 .296-.296v-2.774h-2.693v2.774zm-47.658 0c0 .163.133.296.296.296h2.101a.297.297 0 0 0 .296-.296v-2.774h-2.693v2.774zm53.543-50.56a4.128 4.128 0 0 0-4.124-4.123H13.578a4.128 4.128 0 0 0-4.123 4.123v20.768c0 .497.097.992.288 1.476h56.495c.191-.484.288-.979.288-1.476V6.616zm6.953 28.661c0-.359-.063-.726-.197-1.157a3.891 3.891 0 0 0-1.792-2.224 3.845 3.845 0 0 0-1.921-.528H6.411c-.66 0-1.306.178-1.92.528a3.891 3.891 0 0 0-1.792 2.224c-.135.43-.197.798-.197 1.157v3.706a3.913 3.913 0 0 0 3.909 3.909h63.158a3.914 3.914 0 0 0 3.91-3.909v-3.706zm0 8.784a6.405 6.405 0 0 1-3.91 1.339H6.411a6.402 6.402 0 0 1-3.909-1.339v3.924a3.913 3.913 0 0 0 3.909 3.909h63.158a3.914 3.914 0 0 0 3.91-3.909v-3.924zM56.091 28.397H45.374a2.787 2.787 0 0 1-2.785-2.784v-5.847a2.787 2.787 0 0 1 2.785-2.784h10.717a2.787 2.787 0 0 1 2.785 2.784v5.847a2.787 2.787 0 0 1-2.785 2.784zm0-8.907H45.374a.277.277 0 0 0-.277.276v5.847c0 .153.124.276.277.276h10.717a.276.276 0 0 0 .277-.276v-5.847a.277.277 0 0 0-.277-.276zm-25.484 8.907H19.89a2.787 2.787 0 0 1-2.785-2.784v-5.847a2.787 2.787 0 0 1 2.785-2.784h10.717a2.787 2.787 0 0 1 2.784 2.784v5.847a2.787 2.787 0 0 1-2.784 2.784zm.276-8.631a.277.277 0 0 0-.276-.276H19.89a.277.277 0 0 0-.277.276v5.847c0 .153.124.276.277.276h10.717a.276.276 0 0 0 .276-.276v-5.847z"/>
</svg>
